<?xml version="1.0" encoding="utf-8"?>
<!-- Generator: Adobe Illustrator 21.0.2, SVG Export Plug-In . SVG Version: 6.00 Build 0)  -->
<svg version="1.1" id="Ebene_1" xmlns="http://www.w3.org/2000/svg"  x="0px" y="0px"
	 viewBox="0 0 186.9 186.9" style="enable-background:new 0 0 186.9 186.9;" xml:space="preserve">
<style type="text/css">
	.st0{fill:#FFFFFF;}
</style>
<g>
	<path class="st0" d="M93.9,0c-3,0-5,10.1-6.7,26.3c4.5,10.9,7.2,21.7,9.1,32.2c2.1-9.5,3.5-19.7,3.5-30.3c0-5.9-0.5-11.9-1.5-18.1
		C97,4,95.5,0,93.9,0"/>
	<path class="st0" d="M56.6,7.9c-2.8,1.2-0.7,11.2,4.1,26.9c8.4,8.3,15.1,17.2,20.9,26.1c-1.8-9.6-4.4-19.5-8.6-29.3
		c-2.3-5.4-5.1-10.8-8.4-16.1C61,10.3,58,7.2,56.6,7.9"/>
	<path class="st0" d="M26.8,28.4c-2.1,2.1,3.6,10.6,13.9,23.4C51.5,56.2,61.1,62,69.8,68.1c-5.3-8.2-11.4-16.4-19-23.9
		C46.7,40,42.1,36.1,37,32.4C31.8,29,27.9,27.3,26.8,28.4"/>
	<path class="st0" d="M6.9,58.7c-1.2,2.8,7.3,8.5,21.6,16.5c11.8,0.1,22.9,1.8,33.2,4.2c-8-5.6-16.7-10.9-26.6-15.1
		C29.8,62,24.1,60,18,58.6C11.8,57.3,7.6,57.2,6.9,58.7"/>
	<path class="st0" d="M0,93c0,3,10.1,5,26.3,6.7c10.9-4.5,21.8-7.2,32.2-9.1c-9.5-2.1-19.7-3.5-30.3-3.5c-5.9,0-11.9,0.5-18.1,1.5
		C4,89.9,0,91.5,0,93"/>
	<path class="st0" d="M7.8,130.3c1.2,2.8,11.2,0.7,26.9-4.1c8.3-8.4,17.2-15.1,26.1-20.9c-9.6,1.8-19.5,4.4-29.3,8.6
		c-5.4,2.3-10.8,5.1-16.1,8.4C10.3,125.9,7.2,128.9,7.8,130.3"/>
	<path class="st0" d="M28.4,160.1c2.1,2.1,10.6-3.6,23.4-13.9c4.5-10.9,10.3-20.5,16.4-29.2c-8.2,5.3-16.4,11.4-23.9,19
		c-4.2,4.2-8.1,8.8-11.8,13.9C29,155.1,27.3,159,28.4,160.1"/>
	<path class="st0" d="M58.7,180c2.8,1.2,8.5-7.3,16.4-21.6c0.1-11.8,1.8-22.8,4.2-33.2c-5.6,8-10.9,16.7-15.1,26.6
		c-2.3,5.4-4.2,11.2-5.7,17.3C57.3,175.1,57.2,179.3,58.7,180"/>
	<path class="st0" d="M93,186.9c3,0,5-10.1,6.7-26.3c-4.5-10.9-7.2-21.8-9.1-32.2c-2.1,9.5-3.5,19.7-3.5,30.3
		c0,5.9,0.5,11.9,1.5,18.1C89.9,182.9,91.5,186.9,93,186.9"/>
	<path class="st0" d="M130.3,179.1c2.8-1.2,0.7-11.2-4.1-26.9c-8.4-8.3-15.1-17.2-20.9-26.1c1.8,9.6,4.4,19.5,8.6,29.3
		c2.3,5.4,5.1,10.8,8.4,16.1C125.9,176.6,128.9,179.7,130.3,179.1"/>
	<path class="st0" d="M160.1,158.5c2.1-2.1-3.6-10.6-13.9-23.4c-10.9-4.5-20.5-10.3-29.2-16.4c5.3,8.2,11.4,16.4,19,23.9
		c4.2,4.2,8.8,8.1,13.9,11.8C155.1,157.9,159,159.7,160.1,158.5"/>
	<path class="st0" d="M180,128.2c1.2-2.8-7.3-8.5-21.6-16.5c-11.8-0.1-22.8-1.8-33.2-4.2c8,5.6,16.7,10.9,26.6,15.1
		c5.4,2.3,11.2,4.2,17.3,5.7C175.1,129.6,179.3,129.7,180,128.2"/>
	<path class="st0" d="M186.9,93.9c0-3-10.1-5-26.3-6.7c-10.9,4.5-21.8,7.2-32.2,9.1c9.5,2.1,19.7,3.5,30.3,3.5
		c5.9,0,11.9-0.5,18.1-1.5C182.9,97,186.9,95.5,186.9,93.9"/>
	<path class="st0" d="M179.1,56.6c-1.2-2.8-11.2-0.7-26.9,4.1c-8.3,8.4-17.2,15.1-26.2,20.9c9.6-1.8,19.5-4.4,29.3-8.6
		c5.4-2.3,10.8-5.1,16.1-8.4C176.6,61.1,179.7,58.1,179.1,56.6"/>
	<path class="st0" d="M158.5,26.8c-2.1-2.1-10.6,3.6-23.4,13.9c-4.5,10.9-10.3,20.5-16.4,29.2c8.2-5.3,16.4-11.4,23.9-19
		c4.2-4.2,8.1-8.7,11.8-13.9C157.9,31.8,159.7,27.9,158.5,26.8"/>
	<path class="st0" d="M128.2,7c-2.8-1.2-8.5,7.3-16.5,21.6c-0.1,11.8-1.8,22.8-4.2,33.2c5.6-8,10.9-16.7,15.1-26.6
		c2.3-5.4,4.2-11.2,5.7-17.3C129.6,11.8,129.7,7.6,128.2,7"/>
	<path class="st0" d="M93.9,0c-3,0-5,10.1-6.7,26.3c4.5,10.9,7.2,21.7,9.1,32.2c2.1-9.5,3.5-19.7,3.5-30.3c0-5.9-0.5-11.9-1.5-18.1
		C97,4,95.5,0,93.9,0"/>
</g>
</svg>
