<?xml version="1.0" encoding="UTF-8" standalone="no"?>
<!-- Created with Inkscape (http://www.inkscape.org/) -->

<svg
   xmlns:dc="http://purl.org/dc/elements/1.1/"
   xmlns:cc="http://creativecommons.org/ns#"
   xmlns:rdf="http://www.w3.org/1999/02/22-rdf-syntax-ns#"
   xmlns:svg="http://www.w3.org/2000/svg"
   xmlns="http://www.w3.org/2000/svg"
   xmlns:sodipodi="http://sodipodi.sourceforge.net/DTD/sodipodi-0.dtd"
   xmlns:inkscape="http://www.inkscape.org/namespaces/inkscape"
   width="128"
   height="128"
   id="svg3201"
   version="1.1"
   inkscape:version="0.48.4 r9939"
   sodipodi:docname="berlus_logo.svg">
  <defs
     id="defs3203" />
  <sodipodi:namedview
     id="base"
     pagecolor="#ffffff"
     bordercolor="#666666"
     borderopacity="1.0"
     inkscape:pageopacity="0.0"
     inkscape:pageshadow="2"
     inkscape:zoom="2.75"
     inkscape:cx="41.517224"
     inkscape:cy="40.461628"
     inkscape:current-layer="layer1"
     showgrid="true"
     inkscape:document-units="px"
     inkscape:grid-bbox="true"
     inkscape:window-width="1855"
     inkscape:window-height="1056"
     inkscape:window-x="65"
     inkscape:window-y="24"
     inkscape:window-maximized="1" />
  <metadata
     id="metadata3206">
    <rdf:RDF>
      <cc:Work
         rdf:about="">
        <dc:format>image/svg+xml</dc:format>
        <dc:type
           rdf:resource="http://purl.org/dc/dcmitype/StillImage" />
        <dc:title />
      </cc:Work>
    </rdf:RDF>
  </metadata>
  <g
     id="layer1"
     inkscape:label="Layer 1"
     inkscape:groupmode="layer"
     transform="translate(0,64)">
    <g
       id="g5360"
       style="fill:#ffffff;fill-opacity:0.21446808000000001;fill-rule:nonzero;stroke:none"
       transform="matrix(4.5882743,0,0,4.5424044,1.7133884,-63.209951)">
      <path
         inkscape:connector-curvature="0"
         style="fill:#ffffff;fill-opacity:0.21446808000000001"
         id="path5362"
         d="m 21.209,21.3692 c -0.002,-0.0039 -0.004,-0.0059 -0.006,-0.0108 -0.134,-0.2099 -0.28,-0.4287 -0.433,-0.6552 -1.623,-0.8096 -3.025,-1.8311 -4.275,-2.8965 0.772,1.5547 1.706,3.0771 2.984,4.4414 1.273,1.2012 2.243,1.9658 2.739,2.124 0.139,0.043 0.242,0.043 0.305,-0.0078 0.021,-0.0186 0.036,-0.042 0.047,-0.0713 0.119,-0.29 -0.261,-1.1416 -1.017,-2.3779 -0.108,-0.1758 -0.223,-0.3555 -0.344,-0.5459 z M 8.937,0.8311 C 8.903,0.8457 8.871,0.8702 8.845,0.9082 8.605,1.2647 8.801,2.7168 9.327,4.8516 10.555,6.1455 11.495,7.5489 12.274,8.9463 11.983,6.793 11.459,4.6104 10.346,2.4942 9.698,1.3545 9.197,0.7373 8.937,0.8311 z m 9.626,0.583 C 18.558,1.0811 18.498,0.877 18.374,0.8311 18.341,0.8194 18.306,0.8194 18.264,0.8301 c -0.286,0.0723 -0.75,0.6895 -1.334,1.7207 -0.274,0.4844 -0.574,1.0625 -0.894,1.7158 0.013,0.2881 0.021,0.5743 0.021,0.8536 0,1.4814 -0.164,2.8955 -0.403,4.2353 1.376,-2.0703 2.638,-4.6523 2.909,-7.9414 z m -5.795,21.915 c 0,0.8887 0.07,1.8047 0.226,2.7383 0.037,0.1826 0.076,0.3506 0.115,0.502 0.168,0.6582 0.352,1.0215 0.546,1.0215 0.396,0 0.753,-1.5196 1.016,-3.9776 -0.68,-1.6416 -1.091,-3.2842 -1.37,-4.8672 -0.31,1.4424 -0.533,2.9737 -0.533,4.583 z m 5.216,-0.5888 c -1.228,-1.2959 -2.168,-2.6973 -2.947,-4.0948 0.293,2.1651 0.821,4.3594 1.946,6.4883 0.318,0.5557 0.602,0.9854 0.835,1.2647 0.237,0.2802 0.427,0.4082 0.556,0.3613 0.013,-0.0039 0.024,-0.0098 0.032,-0.0166 0.236,-0.1562 0.206,-0.9844 -0.043,-2.293 -0.096,-0.5019 -0.224,-1.0771 -0.379,-1.7099 z M 4.737,24.0108 c -0.032,0.1719 -0.02,0.2939 0.051,0.3535 0.039,0.0312 0.092,0.0439 0.157,0.04 0.467,-0.0341 1.611,-0.9257 3.152,-2.4121 0.451,-1.5322 1.129,-3.0498 2.045,-4.5849 -2.159,1.6728 -4.146,3.6982 -5.405,6.6035 z M 23.325,11.0782 c -1.486,1.0175 -3.026,1.7138 -4.555,2.2207 1.979,0.0722 4.092,-0.0508 6.256,-0.6817 0.775,-0.2627 1.37,-0.5078 1.748,-0.7236 0.328,-0.1885 0.491,-0.3555 0.468,-0.4941 -0.002,-0.0108 -0.005,-0.0225 -0.012,-0.0362 -0.11,-0.2539 -0.914,-0.3681 -2.225,-0.3535 -0.489,0.0059 -1.054,0.0283 -1.68,0.0684 z M 3.314,16.5518 C 3.529,16.5411 3.754,16.5284 3.986,16.5127 5.473,15.4981 7.015,14.8008 8.541,14.295 6.556,14.2217 4.439,14.3457 2.27,14.9786 1.702,15.1709 1.232,15.3555 0.873,15.5235 0.776,15.5704 0.686,15.6162 0.605,15.6602 0.597,15.6651 0.59,15.669 0.58,15.6748 c -0.052,0.0293 -0.1,0.0577 -0.146,0.085 -0.003,0.0039 -0.008,0.0068 -0.013,0.0088 -0.02,0.0146 -0.041,0.0264 -0.061,0.041 -0.001,0.001 -0.004,0.002 -0.005,0.0029 -0.023,0.0147 -0.041,0.0293 -0.06,0.042 -0.008,0.0078 -0.017,0.0137 -0.025,0.0196 -0.011,0.0107 -0.022,0.0195 -0.033,0.0273 -0.007,0.0078 -0.014,0.0137 -0.023,0.0205 -0.008,0.0078 -0.019,0.0166 -0.026,0.0254 -0.006,0.0039 -0.011,0.0107 -0.015,0.0166 -0.01,0.0098 -0.018,0.0195 -0.027,0.0264 -0.062,0.0722 -0.087,0.1396 -0.079,0.2011 0.063,0.3438 1.275,0.4541 3.247,0.3604 z m 5.431,9.6348 c 0.004,0.1396 0.017,0.2568 0.039,0.3486 0,0.0019 10e-4,0.0019 10e-4,0.0019 0.004,0.0196 0.01,0.0372 0.017,0.0557 0,0.001 0,0.001 0.001,0.0029 0.011,0.0342 0.025,0.0625 0.042,0.087 0.026,0.038 0.058,0.0644 0.092,0.0771 0.233,0.084 0.657,-0.3965 1.209,-1.3144 0.017,-0.0284 0.033,-0.0596 0.051,-0.0879 0.016,-0.0264 0.032,-0.0528 0.048,-0.0782 0.31,-0.5312 0.656,-1.1914 1.029,-1.955 -0.011,-0.2862 -0.019,-0.5723 -0.019,-0.8526 0,-1.4814 0.165,-2.8945 0.4,-4.2353 -1.373,2.0713 -2.638,4.6562 -2.91,7.9502 z M 3.749,13.0723 C 5.515,12.6758 7.234,12.5557 8.864,12.5596 7.106,11.8262 5.238,11.2364 3.197,11.0371 c -1.622,-0.0742 -2.713,0 -3.033,0.2286 -0.054,0.041 -0.086,0.0859 -0.097,0.1338 -0.067,0.3876 1.341,0.997 3.682,1.6728 z M 1.736,7.167 c 0.013,0.0254 0.028,0.0518 0.043,0.0772 0.009,0.0156 0.014,0.0303 0.027,0.0469 0.33,0.5146 1.344,1.3867 2.838,2.4736 1.77,0.2275 3.412,0.7012 4.931,1.2617 C 7.58,9.1748 5.315,7.5801 2.332,6.8135 2.309,6.8106 2.285,6.8047 2.264,6.8008 2.238,6.7989 2.213,6.7969 2.188,6.794 2.156,6.7911 2.124,6.7871 2.096,6.7852 1.89,6.7735 1.758,6.8116 1.708,6.8975 1.695,6.919 1.688,6.9434 1.688,6.9727 c 0,0.001 0,0.0019 0,0.0029 C 1.684,7.0303 1.7,7.0957 1.736,7.167 z m 16.357,4.4746 C 20.42,10.9112 22.73,9.8809 24.788,8.0723 25.156,7.7334 25.413,7.4502 25.536,7.2364 25.621,7.0899 25.647,6.9746 25.602,6.8975 25.578,6.8555 25.533,6.8243 25.466,6.8047 25.333,6.7676 25.112,6.7803 24.82,6.8428 24.125,6.9873 23.016,7.3995 21.617,8.0225 20.58,9.4024 19.373,10.5743 18.093,11.6416 z m -8.875,4.3086 c -2.334,0.7344 -4.649,1.7676 -6.715,3.585 -0.607,0.5654 -0.902,0.9727 -0.795,1.1582 0.024,0.0449 0.071,0.0732 0.137,0.0937 0.454,0.127 1.86,-0.3339 3.849,-1.2187 1.037,-1.3789 2.246,-2.5498 3.524,-3.6182 z m 13.448,1.876 c -1.771,-0.2275 -3.412,-0.6992 -4.928,-1.2598 1.995,1.8516 4.261,3.4483 7.25,4.2129 0.336,0.0537 0.548,0.0293 0.614,-0.0859 0.013,-0.0215 0.021,-0.0459 0.021,-0.0732 0.03,-0.4063 -1.087,-1.4327 -2.957,-2.794 z M 22.576,3.5782 C 22.608,3.4053 22.592,3.2842 22.523,3.2276 22.505,3.212 22.479,3.1993 22.455,3.1944 22.268,3.1475 21.903,3.3262 21.396,3.6973 20.828,4.1094 20.084,4.7627 19.212,5.6016 18.763,7.1329 18.085,8.6495 17.171,10.1856 19.33,8.5127 21.319,6.4854 22.576,3.5782 z m 0.986,10.9404 c -1.765,0.3984 -3.485,0.5176 -5.116,0.5137 1.763,0.7353 3.636,1.3261 5.682,1.5263 0.603,0.0254 1.133,0.0313 1.575,0.0166 0.054,0 0.108,-0.0039 0.159,-0.0058 0.056,-0.003 0.109,-0.0049 0.159,-0.0078 0.75,-0.0479 1.187,-0.168 1.221,-0.3702 0.002,-0.0058 0,-0.0107 0,-0.0166 0.025,-0.3847 -1.373,-0.9882 -3.68,-1.6562 z M 4.788,3.793 C 4.992,4.42 5.611,5.5039 6.541,6.8907 8.167,7.6993 9.565,8.7207 10.816,9.7871 10.047,8.2305 9.112,6.71 7.832,5.3467 6.209,3.8096 5.075,2.9893 4.788,3.2276 4.749,3.2588 4.726,3.3125 4.72,3.377 4.715,3.4248 4.721,3.4834 4.731,3.5479 4.742,3.6211 4.759,3.7012 4.788,3.793 z m 9.753,0.4688 C 14.541,3.3731 14.474,2.46 14.317,1.5254 14.129,0.6016 13.916,0.0606 13.691,0.0059 c 0,0 0,0 -0.001,0 C 13.679,0.002 13.666,0 13.655,0 c -0.396,0 -0.753,1.5196 -1.016,3.9776 0.681,1.6416 1.093,3.2851 1.371,4.8672 0.311,-1.4405 0.531,-2.9707 0.531,-4.583 z" />
    </g>
  </g>
</svg>
